<svg width="7" height="6" viewBox="0 0 7 6" fill="none" xmlns="http://www.w3.org/2000/svg">
<path fill-rule="evenodd" clip-rule="evenodd" d="M2.549 4.09156L5.46178 1.14823C5.7531 0.853808 6.22802 0.851329 6.52239 1.1427C6.81682 1.43405 6.81933 1.90892 6.52794 2.20334L3.17431 5.59214C3.14739 5.63134 3.11632 5.66853 3.08117 5.7031C2.9334 5.84831 2.7409 5.91985 2.54888 5.91813C2.35485 5.92075 2.15996 5.84855 2.01116 5.70129C1.97606 5.66654 1.94506 5.62918 1.91826 5.58982L0.280508 3.92321C-0.00983621 3.62777 -0.00568582 3.15291 0.289724 2.86258C0.585196 2.57226 1.06005 2.5764 1.35039 2.87184L2.549 4.09156Z" fill="#626A93"/>
</svg>
