<svg width="24" height="25" viewBox="0 0 24 25" fill="none" xmlns="http://www.w3.org/2000/svg">
<path d="M11.97 23.5C6.04997 23.5 1.21997 18.68 1.21997 12.75C1.21997 6.82 6.04997 2 11.97 2C17.89 2 22.72 6.82 22.72 12.75C22.72 18.68 17.9 23.5 11.97 23.5ZM11.97 3.5C6.86997 3.5 2.71997 7.65 2.71997 12.75C2.71997 17.85 6.86997 22 11.97 22C17.07 22 21.22 17.85 21.22 12.75C21.22 7.65 17.07 3.5 11.97 3.5Z" fill="#626A93"/>
<path d="M12 19.9999C9.85 19.9999 7.83 18.9499 6.6 17.1799C6.36 16.8399 6.45 16.3699 6.79 16.1399C7.13 15.8999 7.6 15.9899 7.83 16.3299C8.78 17.6899 10.34 18.5099 12 18.5099C13.66 18.5099 15.22 17.6999 16.17 16.3299C16.41 15.9899 16.87 15.9099 17.21 16.1399C17.55 16.3799 17.63 16.8399 17.4 17.1799C16.17 18.9499 14.15 19.9999 12 19.9999Z" fill="#626A93"/>
</svg>
