<svg width="25" height="25" viewBox="0 0 25 25" fill="none" xmlns="http://www.w3.org/2000/svg">
<path fill-rule="evenodd" clip-rule="evenodd" d="M19.2246 3.03467C20.7434 3.03467 21.9746 4.26589 21.9746 5.78467L21.9746 8.78467C21.9746 10.3035 20.7434 11.5347 19.2246 11.5347L6.72461 11.5347C5.20583 11.5347 3.97461 10.3035 3.97461 8.78467L3.97461 5.78467C3.97461 4.26588 5.20583 3.03467 6.72461 3.03467L19.2246 3.03467ZM20.4746 5.78467C20.4746 5.09431 19.915 4.53467 19.2246 4.53467L6.72461 4.53467C6.03425 4.53467 5.47461 5.09431 5.47461 5.78467L5.47461 8.78467C5.47461 9.47502 6.03425 10.0347 6.72461 10.0347L19.2246 10.0347C19.915 10.0347 20.4746 9.47502 20.4746 8.78467L20.4746 5.78467Z" fill="#626A93"/>
<path fill-rule="evenodd" clip-rule="evenodd" d="M19.2246 12.5659C20.7434 12.5659 21.9746 13.7971 21.9746 15.3159L21.9746 18.3159C21.9746 19.8347 20.7434 21.0659 19.2246 21.0659L6.72461 21.0659C5.20583 21.0659 3.97461 19.8347 3.97461 18.3159L3.97461 15.3159C3.97461 13.7971 5.20583 12.5659 6.72461 12.5659L19.2246 12.5659ZM20.4746 15.3159C20.4746 14.6256 19.915 14.0659 19.2246 14.0659L6.72461 14.0659C6.03425 14.0659 5.47461 14.6256 5.47461 15.3159L5.47461 18.3159C5.47461 19.0063 6.03425 19.5659 6.72461 19.5659L19.2246 19.5659C19.915 19.5659 20.4746 19.0063 20.4746 18.3159L20.4746 15.3159Z" fill="#626A93"/>
</svg>
