<svg width="24" height="25" viewBox="0 0 24 25" fill="none" xmlns="http://www.w3.org/2000/svg">
<path fill-rule="evenodd" clip-rule="evenodd" d="M14.4698 9.78033C14.1769 9.48744 14.1769 9.01256 14.4698 8.71967L20.4698 2.71967C20.7627 2.42678 21.2376 2.42678 21.5305 2.71967C21.8233 3.01256 21.8233 3.48744 21.5305 3.78033L15.5305 9.78033C15.2376 10.0732 14.7627 10.0732 14.4698 9.78033Z" fill="#626A93"/>
<path fill-rule="evenodd" clip-rule="evenodd" d="M18.7501 10.25C18.7501 10.6642 18.4143 11 18.0001 11L14.1001 11C13.6307 11 13.2501 10.6194 13.2501 10.15L13.2501 6.25C13.2501 5.83579 13.5859 5.5 14.0001 5.5C14.4143 5.5 14.7501 5.83579 14.7501 6.25L14.7501 9.5L18.0001 9.5C18.4143 9.5 18.7501 9.83579 18.7501 10.25Z" fill="#626A93"/>
<path fill-rule="evenodd" clip-rule="evenodd" d="M9.53009 14.7197C9.82298 15.0126 9.82298 15.4874 9.53009 15.7803L3.53008 21.7803C3.23719 22.0732 2.76232 22.0732 2.46942 21.7803C2.17653 21.4874 2.17653 21.0126 2.46942 20.7197L8.46943 14.7197C8.76232 14.4268 9.23719 14.4268 9.53009 14.7197Z" fill="#626A93"/>
<path fill-rule="evenodd" clip-rule="evenodd" d="M5.24976 14.25C5.24976 13.8358 5.58554 13.5 5.99976 13.5L9.89976 13.5C10.3692 13.5 10.7498 13.8806 10.7498 14.35L10.7498 18.25C10.7498 18.6642 10.414 19 9.99975 19C9.58554 19 9.24975 18.6642 9.24976 18.25L9.24976 15L5.99976 15C5.58554 15 5.24976 14.6642 5.24976 14.25Z" fill="#626A93"/>
<path fill-rule="evenodd" clip-rule="evenodd" d="M14.4699 14.7197C14.7628 14.4268 15.2377 14.4268 15.5306 14.7197L21.5306 20.7197C21.8235 21.0126 21.8235 21.4874 21.5306 21.7803C21.2377 22.0732 20.7628 22.0732 20.4699 21.7803L14.4699 15.7803C14.177 15.4874 14.177 15.0126 14.4699 14.7197Z" fill="#626A93"/>
<path fill-rule="evenodd" clip-rule="evenodd" d="M14.0002 19C13.586 19 13.2502 18.6642 13.2502 18.25L13.2502 14.35C13.2502 13.8806 13.6308 13.5 14.1002 13.5L18.0002 13.5C18.4145 13.5 18.7502 13.8358 18.7502 14.25C18.7502 14.6642 18.4145 15 18.0002 15L14.7502 15L14.7502 18.25C14.7502 18.6642 14.4145 19 14.0002 19Z" fill="#626A93"/>
<path fill-rule="evenodd" clip-rule="evenodd" d="M9.53057 9.78033C9.23768 10.0732 8.76281 10.0732 8.46991 9.78033L2.46991 3.78033C2.17702 3.48744 2.17702 3.01256 2.46991 2.71967C2.76281 2.42678 3.23768 2.42678 3.53057 2.71967L9.53057 8.71967C9.82347 9.01256 9.82347 9.48744 9.53057 9.78033Z" fill="#626A93"/>
<path fill-rule="evenodd" clip-rule="evenodd" d="M10.0002 5.5C10.4145 5.5 10.7502 5.83579 10.7502 6.25L10.7502 10.15C10.7502 10.6194 10.3697 11 9.90024 11L6.00024 11C5.58603 11 5.25024 10.6642 5.25024 10.25C5.25024 9.83579 5.58603 9.5 6.00024 9.5L9.25024 9.5L9.25024 6.25C9.25024 5.83579 9.58603 5.5 10.0002 5.5Z" fill="#626A93"/>
</svg>
