<svg width="25" height="25" viewBox="0 0 25 25" fill="none" xmlns="http://www.w3.org/2000/svg">
<g id="Iconly/Light/Lock">
<g id="Lock">
<path id="3" fill-rule="evenodd" clip-rule="evenodd" d="M6.74201 7.77752C6.75482 4.84993 9.13711 2.48788 12.0636 2.4998C14.9901 2.50068 17.363 4.87413 17.363 7.8008V9.9478C17.363 10.362 17.0272 10.6978 16.613 10.6978C16.1988 10.6978 15.863 10.362 15.863 9.9478V7.8008C15.863 5.70201 14.1608 3.9998 12.062 3.9998H12.0587C9.96052 3.99062 8.25203 5.68338 8.242 7.78252V9.9478C8.242 10.362 7.90622 10.6978 7.492 10.6978C7.07779 10.6978 6.742 10.362 6.742 9.9478L6.74201 7.77752Z" fill="#626A93"/>
<path id="2" fill-rule="evenodd" clip-rule="evenodd" d="M8.23182 10.6267C6.5519 10.6267 5.18982 11.9881 5.18982 13.6687V17.9577C5.18982 19.6384 6.5519 20.9997 8.23182 20.9997H15.8728C17.5527 20.9997 18.9148 19.6384 18.9148 17.9577V13.6687C18.9148 11.9881 17.5527 10.6267 15.8728 10.6267H8.23182ZM3.68982 13.6687C3.68982 11.1594 5.72373 9.12671 8.23182 9.12671H15.8728C18.3809 9.12671 20.4148 11.1594 20.4148 13.6687V17.9577C20.4148 20.4671 18.3809 22.4997 15.8728 22.4997H8.23182C5.72373 22.4997 3.68982 20.4671 3.68982 17.9577V13.6687Z" fill="#626A93"/>
<path id="1" fill-rule="evenodd" clip-rule="evenodd" d="M12.0525 13.9526C12.4667 13.9526 12.8025 14.2884 12.8025 14.7026V16.9236C12.8025 17.3379 12.4667 17.6736 12.0525 17.6736C11.6383 17.6736 11.3025 17.3379 11.3025 16.9236V14.7026C11.3025 14.2884 11.6383 13.9526 12.0525 13.9526Z" fill="#626A93"/>
</g>
</g>
</svg>
