<svg width="25" height="24" viewBox="0 0 25 24" fill="none" xmlns="http://www.w3.org/2000/svg">
<g clip-path="url(#clip0_204_4085)">
<path d="M4.37496 21.0001C4.57386 21 4.76459 20.921 4.90521 20.7803L9.86947 15.8161L10.8055 16.7851C11.5109 17.5306 12.4833 17.9659 13.5092 17.9956C13.8512 17.9966 14.1909 17.939 14.5135 17.8253C15.0119 17.6537 15.4497 17.3411 15.7739 16.9255C16.0981 16.5098 16.2947 16.009 16.3397 15.4838C16.4211 14.7232 16.3647 13.9541 16.1732 13.2136L16.0127 12.4321C15.9823 12.3071 15.9845 12.1764 16.0192 12.0525C16.0539 11.9287 16.1198 11.8158 16.2107 11.7248L17.401 10.5338C17.4479 10.4867 17.5114 10.4598 17.578 10.4588C17.6013 10.4545 17.6254 10.4567 17.6475 10.4653C17.6697 10.4739 17.689 10.4886 17.7032 10.5076C18.0799 10.907 18.5867 11.1591 19.1326 11.2185C19.6785 11.2779 20.2277 11.1407 20.6815 10.8316C20.9478 10.6417 21.1695 10.3961 21.3311 10.1119C21.4928 9.8276 21.5906 9.51151 21.6177 9.1856C21.6447 8.8597 21.6004 8.53181 21.4878 8.22478C21.3752 7.91775 21.1971 7.63895 20.9657 7.4078L17.275 3.71555C16.896 3.32713 16.3926 3.08427 15.8527 3.02943C15.3128 2.97459 14.7708 3.11126 14.3215 3.41555C14.0551 3.60533 13.8334 3.85088 13.6716 4.13511C13.5099 4.41934 13.412 4.73542 13.3849 5.06133C13.3577 5.38723 13.402 5.71514 13.5145 6.0222C13.6271 6.32926 13.8052 6.6081 14.0365 6.8393L14.0935 6.8963C14.1364 6.93957 14.1605 6.99808 14.1605 7.05905C14.1605 7.12003 14.1364 7.17853 14.0935 7.2218L12.8935 8.4218C12.8014 8.51366 12.6871 8.58001 12.5616 8.61433C12.4362 8.64865 12.304 8.64976 12.178 8.61755L11.5652 8.4608C10.8115 8.26396 10.0285 8.20476 9.25371 8.28605C8.70423 8.34296 8.18248 8.55578 7.74995 8.89941C7.31741 9.24304 6.99214 9.70317 6.81246 10.2256C6.61639 10.7624 6.57772 11.344 6.70103 11.9021C6.82433 12.4601 7.10446 12.9713 7.50846 13.3756L8.82696 14.7406L3.84471 19.7198C3.73986 19.8247 3.66845 19.9583 3.63952 20.1038C3.6106 20.2492 3.62545 20.4 3.6822 20.537C3.73896 20.6741 3.83506 20.7912 3.95837 20.8736C4.08168 20.956 4.22665 21 4.37496 21.0001ZM8.22621 10.7251C8.31073 10.4695 8.4675 10.244 8.67755 10.0758C8.8876 9.9075 9.14192 9.80375 9.40971 9.77705C9.58238 9.75908 9.75587 9.75007 9.92947 9.75005C10.355 9.75007 10.7787 9.80477 11.1902 9.9128L11.8075 10.0703C12.1856 10.166 12.5821 10.162 12.9583 10.0589C13.3345 9.95567 13.6775 9.75678 13.954 9.48155L15.154 8.28155C15.4778 7.95679 15.6596 7.5169 15.6596 7.0583C15.6596 6.5997 15.4778 6.15981 15.154 5.83505L15.097 5.77805C15.0193 5.70058 14.9596 5.60701 14.922 5.50396C14.8845 5.4009 14.87 5.29085 14.8795 5.18158C14.8891 5.0723 14.9226 4.96646 14.9775 4.87152C15.0324 4.77657 15.1075 4.69483 15.1975 4.63205C15.3575 4.53517 15.5461 4.49644 15.7313 4.5224C15.9166 4.54836 16.0872 4.63742 16.2145 4.77455L19.9075 8.46755C19.9851 8.54503 20.0448 8.63859 20.0824 8.74165C20.12 8.84471 20.1345 8.95475 20.1249 9.06403C20.1153 9.1733 20.0819 9.27914 20.0269 9.37409C19.972 9.46904 19.8969 9.55078 19.807 9.61355C19.6452 9.71176 19.4542 9.75051 19.267 9.72313C19.0797 9.69575 18.9079 9.60396 18.781 9.46355C18.6267 9.30444 18.442 9.17787 18.238 9.09131C18.0339 9.00474 17.8146 8.95994 17.593 8.95955C17.1254 8.96168 16.677 9.14566 16.3427 9.47255L15.1532 10.6628C14.8831 10.9331 14.6863 11.2677 14.5813 11.6351C14.4764 12.0025 14.4667 12.3906 14.5532 12.7628L14.7175 13.5563C14.8688 14.1349 14.9148 14.7359 14.8532 15.3308C14.8353 15.5734 14.7465 15.8054 14.5978 15.9979C14.4491 16.1905 14.2471 16.3351 14.017 16.4138C13.6333 16.5147 13.2289 16.5048 12.8506 16.3853C12.4723 16.2659 12.1356 16.0417 11.8795 15.7388L8.57946 12.3263C8.37369 12.1211 8.23105 11.8612 8.16845 11.5774C8.10584 11.2936 8.12589 10.9978 8.22621 10.7251V10.7251Z" fill="#626A93"/>
</g>
<defs>
<clipPath id="clip0_204_4085">
<rect width="18" height="18" fill="white" transform="translate(3.625 3)"/>
</clipPath>
</defs>
</svg>
