<svg width="16" height="15" viewBox="0 0 16 15" fill="none" xmlns="http://www.w3.org/2000/svg">
<path fill-rule="evenodd" clip-rule="evenodd" d="M6.82232 1.96967C7.11522 2.26256 7.11522 2.73744 6.82232 3.03033L4.35265 5.5H8.79199C11.9676 5.5 14.542 8.07436 14.542 11.25V12.5C14.542 12.9142 14.2062 13.25 13.792 13.25C13.3778 13.25 13.042 12.9142 13.042 12.5V11.25C13.042 8.90279 11.1392 7 8.79199 7H4.35265L6.82232 9.46967C7.11522 9.76256 7.11522 10.2374 6.82232 10.5303C6.52943 10.8232 6.05456 10.8232 5.76166 10.5303L2.01166 6.78033C1.71877 6.48744 1.71877 6.01256 2.01166 5.71967L5.76166 1.96967C6.05456 1.67678 6.52943 1.67678 6.82232 1.96967Z" fill="#626A93"/>
</svg>
