<svg width="26" height="25" viewBox="0 0 26 25" fill="none" xmlns="http://www.w3.org/2000/svg">
<g clip-path="url(#clip0_199_4014)">
<path fill-rule="evenodd" clip-rule="evenodd" d="M9.37903 4.2499C9.37903 2.95203 10.4312 1.8999 11.729 1.8999H13.729C15.0269 1.8999 16.079 2.95203 16.079 4.2499V4.68004C16.079 4.94006 16.2485 5.23446 16.5779 5.42313C16.9026 5.60919 17.2365 5.60579 17.4637 5.47193L17.8348 5.25324C18.953 4.59439 20.3936 4.96677 21.0525 6.08498L22.0677 7.80811C22.7266 8.92632 22.3542 10.3669 21.236 11.0258L20.9478 11.1955C20.6737 11.3571 20.48 11.7075 20.48 12.1499C20.48 12.5354 20.6537 12.8347 20.8882 12.9692L21.2484 13.1759C22.3741 13.8218 22.7631 15.258 22.1171 16.3838L21.1218 18.1185C20.4758 19.2442 19.0396 19.6331 17.9139 18.9872L17.5752 18.7929C17.3258 18.6498 16.9649 18.652 16.6168 18.8542C16.2639 19.0591 16.079 19.3762 16.079 19.66V20.0499C16.079 21.3478 15.0269 22.3999 13.729 22.3999H11.729C10.4312 22.3999 9.37903 21.3478 9.37903 20.0499V19.6197C9.37903 19.3597 9.20954 19.0653 8.88017 18.8766C8.55538 18.6905 8.22153 18.6939 7.99433 18.8278L7.62322 19.0465C6.50501 19.7053 5.06443 19.3329 4.40558 18.2147L3.3903 16.4916C2.73145 15.3734 3.10383 13.9328 4.22203 13.274L4.51024 13.1041C4.78433 12.9426 4.97804 12.5922 4.97804 12.1499C4.97804 11.7643 4.80438 11.4651 4.56982 11.3305L4.20965 11.1238C3.08393 10.4779 2.69499 9.04166 3.34092 7.91594L4.33628 6.18123C4.98221 5.05551 6.41842 4.66657 7.54414 5.3125L7.88288 5.50686C8.13226 5.64996 8.49313 5.64771 8.84131 5.44556C9.19418 5.24069 9.37903 4.92356 9.37903 4.63972V4.2499ZM11.729 3.3999C11.2596 3.3999 10.879 3.78046 10.879 4.2499V4.63972C10.879 5.57655 10.2972 6.33476 9.59445 6.74278C8.88676 7.15365 7.94594 7.27244 7.13635 6.8079L6.79761 6.61353C6.39043 6.3799 5.87096 6.52058 5.63732 6.92776L4.64195 8.66247C4.40832 9.06965 4.549 9.58912 4.95617 9.82276L5.31635 10.0294C6.1125 10.4863 6.47804 11.3471 6.47804 12.1499C6.47804 12.9933 6.10537 13.9053 5.2717 14.3965L4.98349 14.5663C4.57903 14.8046 4.44434 15.3257 4.68265 15.7301L5.69793 17.4533C5.93624 17.8577 6.4573 17.9924 6.86176 17.7541L7.23287 17.5355C8.01568 17.0742 8.93338 17.1784 9.62579 17.575C10.3134 17.9689 10.879 18.7078 10.879 19.6197V20.0499C10.879 20.5193 11.2596 20.8999 11.729 20.8999H13.729C14.1985 20.8999 14.579 20.5193 14.579 20.0499V19.66C14.579 18.7232 15.1608 17.965 15.8636 17.557C16.5713 17.1461 17.5121 17.0273 18.3217 17.4918L18.6604 17.6862C19.0676 17.9198 19.5871 17.7791 19.8207 17.372L20.8161 15.6372C21.0497 15.2301 20.909 14.7106 20.5019 14.477L20.1417 14.2703C19.3455 13.8135 18.98 12.9527 18.98 12.1499C18.98 11.3064 19.3527 10.3944 20.1864 9.90319L20.4746 9.7334C20.879 9.4951 21.0137 8.97403 20.7754 8.56957L19.7601 6.84644C19.5218 6.44198 19.0007 6.30729 18.5963 6.5456L18.2251 6.76428C17.4423 7.22551 16.5247 7.12134 15.8323 6.7247C15.1447 6.33082 14.579 5.59199 14.579 4.68004V4.2499C14.579 3.78046 14.1985 3.3999 13.729 3.3999H11.729Z" fill="#626A93"/>
<path fill-rule="evenodd" clip-rule="evenodd" d="M12.7289 10.2637C11.6872 10.2637 10.8428 11.1081 10.8428 12.1498C10.8428 13.1915 11.6872 14.036 12.7289 14.036C13.7706 14.036 14.6151 13.1915 14.6151 12.1498C14.6151 11.1081 13.7706 10.2637 12.7289 10.2637ZM9.34277 12.1498C9.34277 10.2797 10.8588 8.76367 12.7289 8.76367C14.5991 8.76367 16.1151 10.2797 16.1151 12.1498C16.1151 14.0199 14.5991 15.536 12.7289 15.536C10.8588 15.536 9.34277 14.0199 9.34277 12.1498Z" fill="#626A93"/>
</g>
<defs>
<clipPath id="clip0_199_4014">
<rect width="25" height="25" fill="white" transform="translate(0.125)"/>
</clipPath>
</defs>
</svg>
