<svg width="24" height="24" viewBox="0 0 24 24" fill="none" xmlns="http://www.w3.org/2000/svg">
<path fill-rule="evenodd" clip-rule="evenodd" d="M12 15.4451L8.4202 20.4905H15.5798L12 15.4451ZM12.8156 14.0024C12.417 13.4406 11.583 13.4406 11.1844 14.0024L6.63681 20.4119C6.16698 21.0741 6.64045 21.9905 7.45238 21.9905H16.5476C17.3596 21.9905 17.833 21.0741 17.3632 20.4119L12.8156 14.0024Z" fill="#626A93"/>
<path fill-rule="evenodd" clip-rule="evenodd" d="M1.25 7.75928C1.25 4.58364 3.82436 2.00928 7 2.00928H17C20.1756 2.00928 22.75 4.58364 22.75 7.75928V17.3843C22.75 19.1102 21.3509 20.5093 19.625 20.5093V19.0093C20.5225 19.0093 21.25 18.2817 21.25 17.3843V7.75928C21.25 5.41207 19.3472 3.50928 17 3.50928H7C4.65279 3.50928 2.75 5.41207 2.75 7.75928V17.5718C2.75 18.3657 3.39359 19.0093 4.1875 19.0093V20.5093C2.56516 20.5093 1.25 19.1941 1.25 17.5718V7.75928Z" fill="#626A93"/>
</svg>
