<svg width="25" height="24" viewBox="0 0 25 24" fill="none" xmlns="http://www.w3.org/2000/svg">
<path fill-rule="evenodd" clip-rule="evenodd" d="M18.0886 5.09839C18.1556 4.68964 18.5414 4.41266 18.9501 4.47974C20.6715 4.76222 21.9847 6.2543 21.9847 8.05584L21.9847 8.05739C21.9809 9.88511 20.6263 11.3924 18.867 11.6395C18.4568 11.6972 18.0776 11.4114 18.02 11.0012C17.9623 10.591 18.2481 10.2118 18.6583 10.1541C19.6888 10.0094 20.4821 9.12499 20.4847 8.05504C20.4843 7.00094 19.7156 6.12542 18.7072 5.95994C18.2985 5.89287 18.0215 5.50714 18.0886 5.09839Z" fill="#626A93"/>
<path fill-rule="evenodd" clip-rule="evenodd" d="M19.8617 14.1394C19.923 13.7298 20.3047 13.4473 20.7144 13.5086C21.4303 13.6156 22.1299 13.8051 22.6684 14.1583C23.2447 14.5363 23.6475 15.116 23.6475 15.9003C23.6475 16.419 23.4695 16.8723 23.1477 17.2364C22.8398 17.5848 22.4298 17.8191 22.0029 17.9821C21.6159 18.1297 21.1825 17.9357 21.0348 17.5487C20.8871 17.1618 21.0811 16.7283 21.4681 16.5806C21.7592 16.4696 21.9302 16.3489 22.0238 16.243C22.1035 16.1529 22.1475 16.0527 22.1475 15.9003C22.1475 15.7097 22.0787 15.5654 21.8458 15.4126C21.5751 15.2351 21.1277 15.0871 20.4926 14.9921C20.0829 14.9308 19.8005 14.5491 19.8617 14.1394Z" fill="#626A93"/>
<path fill-rule="evenodd" clip-rule="evenodd" d="M8.33852 14.4394C9.54728 14.034 11.1387 13.9138 12.7617 13.9138C14.3943 13.9138 15.9864 14.0381 17.1937 14.4485C17.8013 14.655 18.3662 14.9518 18.7857 15.3914C19.2226 15.8492 19.4697 16.4299 19.4697 17.1128C19.4697 17.7973 19.2203 18.3779 18.7806 18.8338C18.3589 19.2711 17.7919 19.5645 17.1838 19.7679C15.9754 20.172 14.3842 20.2908 12.7617 20.2908C11.1293 20.2908 9.53715 20.1671 8.32974 19.7576C7.72213 19.5515 7.15705 19.2553 6.73733 18.8162C6.30023 18.359 6.05273 17.7785 6.05273 17.0958C6.05273 16.4114 6.30238 15.8309 6.7418 15.3749C7.16342 14.9373 7.73036 14.6433 8.33852 14.4394ZM7.82192 16.4157C7.64622 16.598 7.55273 16.8077 7.55273 17.0958C7.55273 17.3851 7.64624 17.5963 7.8216 17.7797C8.01435 17.9813 8.33322 18.1749 8.81148 18.337C9.77582 18.6641 11.1632 18.7908 12.7617 18.7908C14.3532 18.7908 15.7411 18.6687 16.7081 18.3453C17.1878 18.1849 17.5077 17.9929 17.7009 17.7925C17.8762 17.6107 17.9697 17.4013 17.9697 17.1128C17.9697 16.8227 17.876 16.6109 17.7006 16.427C17.5078 16.225 17.189 16.0311 16.711 15.8687C15.7471 15.541 14.3601 15.4138 12.7617 15.4138C11.1707 15.4138 9.78269 15.5371 8.81545 15.8615C8.33561 16.0224 8.01542 16.2149 7.82192 16.4157Z" fill="#626A93"/>
<path fill-rule="evenodd" clip-rule="evenodd" d="M8.19266 8.06757C8.19343 5.54501 10.2389 3.5 12.7617 3.5C15.2849 3.5 17.3307 5.54579 17.3307 8.069C17.3307 10.5933 15.2847 12.638 12.7617 12.638H12.7337L12.7312 12.638C10.2151 12.6296 8.18385 10.5831 8.19266 8.06757ZM8.19266 8.06757C8.19266 8.0671 8.19266 8.06662 8.19266 8.06615L8.94266 8.069H8.19266C8.19266 8.06852 8.19266 8.06805 8.19266 8.06757ZM12.7617 5C11.0669 5 9.69266 6.37421 9.69266 8.069V8.07185H9.69265C9.68623 9.75932 11.0481 11.1317 12.7349 11.138H12.7617C14.4566 11.138 15.8307 9.76466 15.8307 8.069C15.8307 6.37421 14.4564 5 12.7617 5Z" fill="#626A93"/>
<path fill-rule="evenodd" clip-rule="evenodd" d="M7.43382 5.09839C7.5009 5.50714 7.22392 5.89287 6.81517 5.95994C5.80676 6.12543 5.0381 7.00095 5.03772 8.05507C5.04032 9.12522 5.83282 10.0093 6.864 10.1541C7.27419 10.2117 7.56003 10.5909 7.50243 11.0011C7.44484 11.4113 7.06563 11.6971 6.65544 11.6396C4.89487 11.3924 3.5415 9.88489 3.53772 8.05739L3.53772 8.05584C3.53772 6.2543 4.85093 4.76222 6.57227 4.47974C6.98101 4.41266 7.36674 4.68964 7.43382 5.09839Z" fill="#626A93"/>
<path fill-rule="evenodd" clip-rule="evenodd" d="M5.66063 14.1394C5.72188 14.5491 5.43944 14.9308 5.02978 14.9921C4.39465 15.0871 3.94724 15.2351 3.67657 15.4126C3.44362 15.5654 3.37488 15.7097 3.37488 15.9003C3.37488 16.0527 3.41889 16.1529 3.49858 16.243C3.59216 16.3489 3.7632 16.4696 4.05428 16.5806C4.44127 16.7283 4.63527 17.1618 4.48759 17.5487C4.33991 17.9357 3.90647 18.1297 3.51948 17.9821C3.09255 17.8191 2.6826 17.5848 2.37467 17.2364C2.05286 16.8723 1.87488 16.419 1.87488 15.9003C1.87488 15.116 2.27763 14.5363 2.85393 14.1583C3.39251 13.8051 4.09211 13.6156 4.80797 13.5086C5.21763 13.4473 5.59938 13.7298 5.66063 14.1394Z" fill="#626A93"/>
</svg>
