<svg width="25" height="24" viewBox="0 0 25 24" fill="none" xmlns="http://www.w3.org/2000/svg">
<path fill-rule="evenodd" clip-rule="evenodd" d="M9.43771 6.08095C9.43771 4.23825 10.9241 2.75 12.7498 2.75C14.5764 2.75 16.0619 4.23813 16.0619 6.08095V9.24472L17.5619 7.74461V6.08095C17.5619 3.41651 15.4117 1.25 12.7498 1.25C10.0891 1.25 7.93771 3.41639 7.93771 6.08095V10.7682C7.93771 12.5576 8.9079 14.1217 10.3508 14.9562L11.4676 13.8393C10.2763 13.3359 9.43771 12.1522 9.43771 10.7682V6.08095ZM13.3928 14.0354L11.9045 15.5238C12.1789 15.5726 12.4613 15.5981 12.7498 15.5981C15.4114 15.5981 17.5619 13.4329 17.5619 10.7682V9.86601L15.9962 11.4318C15.7322 12.7459 14.6996 13.7769 13.3928 14.0354ZM8.55902 16.7481C6.7085 15.4283 5.5 13.2574 5.5 10.8007C5.5 10.3864 5.16421 10.0507 4.75 10.0507C4.33579 10.0507 4 10.3864 4 10.8007C4 13.668 5.3681 16.2167 7.48605 17.8212L8.55902 16.7481ZM8.78949 18.639L9.91732 17.5111C10.7876 17.8828 11.7448 18.0883 12.7495 18.0883C16.7513 18.0883 20 14.8286 20 10.8007C20 10.3864 20.3358 10.0507 20.75 10.0507C21.1642 10.0507 21.5 10.3864 21.5 10.8007C21.5 15.3969 17.9847 19.1743 13.4998 19.5565V22C13.4998 22.4142 13.164 22.75 12.7498 22.75C12.3356 22.75 11.9998 22.4142 11.9998 22V19.5566C10.852 19.4588 9.76765 19.1385 8.78949 18.639Z" fill="#626A93"/>
<path fill-rule="evenodd" clip-rule="evenodd" d="M21.8034 2.46965C22.0963 2.76253 22.0963 3.23741 21.8034 3.53031L5.80464 19.5303C5.51176 19.8232 5.03689 19.8232 4.74398 19.5303C4.45108 19.2375 4.45106 18.7626 4.74394 18.4697L20.7427 2.46969C21.0356 2.17679 21.5105 2.17677 21.8034 2.46965Z" fill="#626A93"/>
</svg>
