<svg width="25" height="24" viewBox="0 0 25 24" fill="none" xmlns="http://www.w3.org/2000/svg">
<g clip-path="url(#clip0_199_4056)">
<path fill-rule="evenodd" clip-rule="evenodd" d="M3.91321 5.72119C3.91321 4.20241 5.14443 2.97119 6.66321 2.97119H9.66321C11.182 2.97119 12.4132 4.20241 12.4132 5.72119V18.2212C12.4132 19.74 11.182 20.9712 9.66321 20.9712H6.66321C5.14442 20.9712 3.91321 19.74 3.91321 18.2212V5.72119ZM6.66321 4.47119C5.97285 4.47119 5.41321 5.03084 5.41321 5.72119V18.2212C5.41321 18.9115 5.97285 19.4712 6.66321 19.4712H9.66321C10.3536 19.4712 10.9132 18.9115 10.9132 18.2212V5.72119C10.9132 5.03084 10.3536 4.47119 9.66321 4.47119H6.66321Z" fill="#626A93"/>
<path fill-rule="evenodd" clip-rule="evenodd" d="M13.4445 5.72119C13.4445 4.20241 14.6757 2.97119 16.1945 2.97119H19.1945C20.7132 2.97119 21.9445 4.20241 21.9445 5.72119V8.72119C21.9445 10.24 20.7132 11.4712 19.1945 11.4712H16.1945C14.6757 11.4712 13.4445 10.24 13.4445 8.72119V5.72119ZM16.1945 4.47119C15.5041 4.47119 14.9445 5.03084 14.9445 5.72119V8.72119C14.9445 9.41155 15.5041 9.97119 16.1945 9.97119H19.1945C19.8848 9.97119 20.4445 9.41155 20.4445 8.72119V5.72119C20.4445 5.03084 19.8848 4.47119 19.1945 4.47119H16.1945Z" fill="#626A93"/>
<path fill-rule="evenodd" clip-rule="evenodd" d="M13.4445 15.2212C13.4445 13.7024 14.6757 12.4712 16.1945 12.4712H19.1945C20.7132 12.4712 21.9445 13.7024 21.9445 15.2212V18.2212C21.9445 19.74 20.7132 20.9712 19.1945 20.9712H16.1945C14.6757 20.9712 13.4445 19.74 13.4445 18.2212V15.2212ZM16.1945 13.9712C15.5041 13.9712 14.9445 14.5308 14.9445 15.2212V18.2212C14.9445 18.9115 15.5041 19.4712 16.1945 19.4712H19.1945C19.8848 19.4712 20.4445 18.9115 20.4445 18.2212V15.2212C20.4445 14.5308 19.8848 13.9712 19.1945 13.9712H16.1945Z" fill="#626A93"/>
</g>
<defs>
<clipPath id="clip0_199_4056">
<rect width="24" height="24" fill="white" transform="translate(0.973267)"/>
</clipPath>
</defs>
</svg>
