<svg width="24" height="24" viewBox="0 0 24 24" fill="none" xmlns="http://www.w3.org/2000/svg">
<g clip-path="url(#clip0_199_4055)">
<path fill-rule="evenodd" clip-rule="evenodd" d="M2.93994 5.72119C2.93994 4.20241 4.17116 2.97119 5.68994 2.97119H8.68994C10.2087 2.97119 11.4399 4.20241 11.4399 5.72119V8.72119C11.4399 10.24 10.2087 11.4712 8.68994 11.4712H5.68994C4.17116 11.4712 2.93994 10.24 2.93994 8.72119V5.72119ZM5.68994 4.47119C4.99959 4.47119 4.43994 5.03084 4.43994 5.72119V8.72119C4.43994 9.41155 4.99959 9.97119 5.68994 9.97119H8.68994C9.3803 9.97119 9.93994 9.41155 9.93994 8.72119V5.72119C9.93994 5.03084 9.3803 4.47119 8.68994 4.47119H5.68994Z" fill="#626A93"/>
<path fill-rule="evenodd" clip-rule="evenodd" d="M2.93994 15.2212C2.93994 13.7024 4.17116 12.4712 5.68994 12.4712H8.68994C10.2087 12.4712 11.4399 13.7024 11.4399 15.2212V18.2212C11.4399 19.74 10.2087 20.9712 8.68994 20.9712H5.68994C4.17116 20.9712 2.93994 19.74 2.93994 18.2212V15.2212ZM5.68994 13.9712C4.99959 13.9712 4.43994 14.5308 4.43994 15.2212V18.2212C4.43994 18.9115 4.99959 19.4712 5.68994 19.4712H8.68994C9.3803 19.4712 9.93994 18.9115 9.93994 18.2212V15.2212C9.93994 14.5308 9.3803 13.9712 8.68994 13.9712H5.68994Z" fill="#626A93"/>
<path fill-rule="evenodd" clip-rule="evenodd" d="M12.4712 5.72119C12.4712 4.20241 13.7024 2.97119 15.2212 2.97119H18.2212C19.74 2.97119 20.9712 4.20241 20.9712 5.72119V8.72119C20.9712 10.24 19.74 11.4712 18.2212 11.4712H15.2212C13.7024 11.4712 12.4712 10.24 12.4712 8.72119V5.72119ZM15.2212 4.47119C14.5308 4.47119 13.9712 5.03084 13.9712 5.72119V8.72119C13.9712 9.41155 14.5308 9.97119 15.2212 9.97119H18.2212C18.9115 9.97119 19.4712 9.41155 19.4712 8.72119V5.72119C19.4712 5.03084 18.9115 4.47119 18.2212 4.47119H15.2212Z" fill="#626A93"/>
<path fill-rule="evenodd" clip-rule="evenodd" d="M12.4712 15.2212C12.4712 13.7024 13.7024 12.4712 15.2212 12.4712H18.2212C19.74 12.4712 20.9712 13.7024 20.9712 15.2212V18.2212C20.9712 19.74 19.74 20.9712 18.2212 20.9712H15.2212C13.7024 20.9712 12.4712 19.74 12.4712 18.2212V15.2212ZM15.2212 13.9712C14.5308 13.9712 13.9712 14.5308 13.9712 15.2212V18.2212C13.9712 18.9115 14.5308 19.4712 15.2212 19.4712H18.2212C18.9115 19.4712 19.4712 18.9115 19.4712 18.2212V15.2212C19.4712 14.5308 18.9115 13.9712 18.2212 13.9712H15.2212Z" fill="#626A93"/>
</g>
<defs>
<clipPath id="clip0_199_4055">
<rect width="18" height="18" fill="white" transform="translate(3 3)"/>
</clipPath>
</defs>
</svg>
