<svg width="24" height="24" viewBox="0 0 24 24" fill="none" xmlns="http://www.w3.org/2000/svg">
<path fill-rule="evenodd" clip-rule="evenodd" d="M16.6487 5.97016C16.0289 5.5173 15.265 5.25 14.4386 5.25H5C2.92893 5.25 1.25 6.92893 1.25 9V15C1.25 16.7261 2.41617 18.1798 4.00361 18.6162L5.36969 17.25H5C3.75736 17.25 2.75 16.2426 2.75 15V9C2.75 7.75736 3.75736 6.75 5 6.75H14.4386C14.8495 6.75 15.2348 6.86017 15.5663 7.0526L16.6487 5.97016ZM7.49093 17.25H14.4386C15.6812 17.25 16.6886 16.2426 16.6886 15V13.9988C16.6886 13.3827 17.3831 13.0227 17.8866 13.3777L21.2499 15.7495V8.25047L17.8866 10.6223C17.3831 10.9773 16.6886 10.6172 16.6886 10.0012V9C16.6886 8.7177 16.6366 8.44754 16.5417 8.19858L17.6604 7.07982C17.9295 7.53046 18.1068 8.0423 18.1664 8.5895L20.7795 6.74672C21.6076 6.16277 22.7499 6.755 22.7499 7.76826V16.2317C22.7499 17.245 21.6076 17.8372 20.7795 17.2533L18.1664 15.4105C17.9619 17.2884 16.3709 18.75 14.4386 18.75H5.99105L7.49093 17.25Z" fill="#626A93"/>
<path fill-rule="evenodd" clip-rule="evenodd" d="M18.6159 2.96965C18.9088 3.26253 18.9088 3.73741 18.6159 4.03031L2.61714 20.0303C2.32426 20.3232 1.84939 20.3232 1.55648 20.0303C1.26358 19.7375 1.26356 19.2626 1.55644 18.9697L17.5552 2.96969C17.8481 2.67679 18.323 2.67677 18.6159 2.96965Z" fill="#626A93"/>
</svg>
