<svg width="25" height="24" viewBox="0 0 25 24" fill="none" xmlns="http://www.w3.org/2000/svg">
<path fill-rule="evenodd" clip-rule="evenodd" d="M5.5 5.6C5.5 3.19756 7.44756 1.25 9.85 1.25H17.25C20.4256 1.25 23 3.82436 23 7V9.1579C23 11.1418 21.3918 12.75 19.4079 12.75C18.9096 12.75 18.5197 12.3553 18.4959 11.8808C18.4833 11.6303 18.4337 11.05 18.2443 10.3938C18.0534 9.73271 17.7354 9.04607 17.2197 8.53033C15.7516 7.06227 13.5112 6.75 11.1186 6.75H6.65C6.01487 6.75 5.5 6.23513 5.5 5.6ZM7.02128 5.25H11.1186C13.5364 5.25 16.3469 5.53626 18.2803 7.46967C19.0396 8.22898 19.4548 9.17869 19.6854 9.97778C19.8152 10.4273 19.8913 10.8455 19.936 11.1828C20.8357 10.9488 21.5 10.1309 21.5 9.1579V7C21.5 4.65279 19.5972 2.75 17.25 2.75H9.85C8.39448 2.75 7.19381 3.8411 7.02128 5.25Z" fill="#626A93"/>
<path fill-rule="evenodd" clip-rule="evenodd" d="M1.5 12.0714C1.5 8.30406 4.55406 5.25 8.32143 5.25H13.1786C16.9459 5.25 20 8.30406 20 12.0714C20 15.8388 16.9459 18.8929 13.1786 18.8929H12.2749L8.91391 22.2539C8.01746 23.1503 6.50987 22.2968 6.81735 21.0668L7.36579 18.8731C4.08333 18.6154 1.5 15.8701 1.5 12.5214V12.0714ZM8.32143 6.75C5.38248 6.75 3 9.13249 3 12.0714V12.5214C3 15.2118 5.18102 17.3929 7.87144 17.3929C8.58794 17.3929 9.11367 18.0662 8.9399 18.7613L8.49147 20.555L11.304 17.7425C11.5278 17.5186 11.8315 17.3929 12.1481 17.3929H13.1786C16.1175 17.3929 18.5 15.0104 18.5 12.0714C18.5 9.13249 16.1175 6.75 13.1786 6.75H8.32143Z" fill="#626A93"/>
</svg>
