<svg width="24" height="24" viewBox="0 0 24 24" fill="none" xmlns="http://www.w3.org/2000/svg">
<path d="M13.6801 18.0701C13.6801 17.8801 13.7501 17.6901 13.9001 17.5401L19.4401 12.0001L13.9001 6.46012C13.6101 6.17012 13.6101 5.69012 13.9001 5.40012C14.1901 5.11012 14.6701 5.11012 14.9601 5.40012L21.0301 11.4701C21.3201 11.7601 21.3201 12.2401 21.0301 12.5301L14.9601 18.6001C14.6701 18.8901 14.1901 18.8901 13.9001 18.6001C13.7501 18.4601 13.6801 18.2601 13.6801 18.0701Z" fill="#626A93"/>
<path d="M2.75008 12C2.75008 11.59 3.09008 11.25 3.50008 11.25L20.3301 11.25C20.7401 11.25 21.0801 11.59 21.0801 12C21.0801 12.41 20.7401 12.75 20.3301 12.75L3.50008 12.75C3.09008 12.75 2.75008 12.41 2.75008 12Z" fill="#626A93"/>
</svg>
