<svg width="25" height="24" viewBox="0 0 25 24" fill="none" xmlns="http://www.w3.org/2000/svg">
<path fill-rule="evenodd" clip-rule="evenodd" d="M16.083 3H8.08301C5.32158 3 3.08301 5.23858 3.08301 8V16C3.08301 18.7614 5.32158 21 8.08301 21H16.083C18.8444 21 21.083 18.7614 21.083 16V8C21.083 5.23858 18.8444 3 16.083 3ZM8.08301 2C4.7693 2 2.08301 4.68629 2.08301 8V16C2.08301 19.3137 4.7693 22 8.08301 22H16.083C19.3967 22 22.083 19.3137 22.083 16V8C22.083 4.68629 19.3967 2 16.083 2H8.08301Z" fill="#626A93"/>
</svg>
