<svg width="13" height="9" viewBox="0 0 13 9" fill="none" xmlns="http://www.w3.org/2000/svg">
<path fill-rule="evenodd" clip-rule="evenodd" d="M4.44976 6.89659L10.9352 0.343052C11.2266 0.0486334 11.7015 0.0461538 11.9959 0.337513C12.2903 0.628879 12.2928 1.10374 12.0014 1.39816L5.07494 8.39727C5.04803 8.43643 5.01702 8.47358 4.98186 8.50813C4.83397 8.65348 4.64123 8.72503 4.44903 8.72316C4.25524 8.72563 4.0606 8.65342 3.91192 8.50631C3.87682 8.47157 3.84582 8.43422 3.81902 8.39486L1.13207 5.6606C0.841726 5.36517 0.845877 4.89031 1.14129 4.59998C1.43676 4.30966 1.91161 4.3138 2.20196 4.60923L4.44976 6.89659Z" fill="#626A93"/>
</svg>
