<svg width="24" height="24" viewBox="0 0 24 24" fill="none" xmlns="http://www.w3.org/2000/svg">
<path fill-rule="evenodd" clip-rule="evenodd" d="M5.46967 5.46978C5.76256 5.17689 6.23744 5.17689 6.53033 5.46978L18.53 17.4694C18.8229 17.7623 18.8229 18.2372 18.53 18.5301C18.2371 18.823 17.7622 18.823 17.4693 18.5301L5.46967 6.53044C5.17678 6.23755 5.17678 5.76268 5.46967 5.46978Z" fill="#626A93"/>
<path fill-rule="evenodd" clip-rule="evenodd" d="M18.5301 5.47003C18.823 5.76292 18.823 6.23779 18.5301 6.53069L6.53044 18.5303C6.23755 18.8232 5.76267 18.8232 5.46978 18.5303C5.17689 18.2374 5.17689 17.7626 5.46978 17.4697L17.4694 5.47003C17.7623 5.17713 18.2372 5.17713 18.5301 5.47003Z" fill="#626A93"/>
</svg>
