<svg width="25" height="25" viewBox="0 0 25 25" fill="none" xmlns="http://www.w3.org/2000/svg">
<g clip-path="url(#clip0_283_5374)">
<path d="M1.98559 9.36203C2.69248 8.66621 3.60317 8.10234 4.69281 7.67024C5.75754 7.25035 6.94551 6.94316 8.20709 6.74828C9.46857 6.56581 10.7666 6.47053 12.0825 6.4685C13.4045 6.48513 14.7009 6.60088 15.9469 6.80313C17.2238 7.02424 18.3944 7.35004 19.4152 7.77397C20.504 8.22947 21.4056 8.82005 22.1014 9.52694C22.5818 10.0149 22.9498 10.564 23.2058 11.1619C23.4679 11.7785 23.5928 12.4684 23.5622 13.2006C23.5485 14.1502 23.232 14.9298 22.6439 15.5086C22.4 15.7488 22.0943 15.9388 21.7831 16.0481C21.4283 16.1756 21.0556 16.2099 20.6838 16.1325L17.2189 15.5155C16.9089 15.4634 16.6364 15.3868 16.3952 15.2793C16.1292 15.1717 15.9006 15.0271 15.7221 14.8457C15.4881 14.608 15.329 14.3088 15.2449 13.9606C15.1725 13.6993 15.1378 13.3763 15.1406 13.0163L15.1288 12.1534C15.1041 12.1408 15.0855 12.1344 15.0669 12.1281C14.8625 12.0706 14.4907 11.9932 13.8705 11.9386C13.2191 11.89 12.6173 11.8543 12.0401 11.8435C11.3139 11.844 10.7241 11.8579 10.2023 11.9035C9.5502 11.9542 9.17095 12.0319 8.96559 12.0986L8.94732 12.055L8.93401 12.9549C8.93097 13.3397 8.88493 13.6683 8.79588 13.9407C8.66118 14.4921 8.26023 14.9607 7.64376 15.2103C7.41338 15.3016 7.14586 15.3802 6.82887 15.4335L3.29877 16.0016C2.91337 16.073 2.54742 16.0391 2.21333 15.8999C1.88551 15.7545 1.6262 15.5787 1.41067 15.3597C1.1151 15.0595 0.888345 14.6915 0.742616 14.2806C0.596887 13.8698 0.519382 13.4658 0.50414 13.0374C0.472776 12.2923 0.58353 11.629 0.855363 11.0042C1.11459 10.4042 1.4914 9.84849 1.98559 9.36203ZM21.7203 14.5703C22.0643 14.2316 22.2356 13.7674 22.2465 13.1654C22.2695 12.6132 22.1803 12.1221 21.9914 11.6799C21.8025 11.2253 21.5264 10.8197 21.1631 10.4506C20.5904 9.86882 19.8309 9.37247 18.9152 8.99282C17.981 8.60682 16.9095 8.30663 15.7317 8.11113C14.5539 7.91562 13.3258 7.80662 12.0783 7.79057C10.8431 7.78703 9.60099 7.87655 8.40783 8.05335C7.24576 8.22418 6.15729 8.50733 5.18591 8.89692C3.66668 9.49323 2.56109 10.3721 2.07402 11.529C1.88429 11.9744 1.79983 12.4517 1.82661 12.9919C1.83667 13.2899 1.89033 13.5697 1.99354 13.8622C2.07241 14.0925 2.19498 14.2921 2.35508 14.4548C2.45361 14.5548 2.5709 14.6365 2.73178 14.6998C2.7875 14.7189 2.89276 14.7507 3.09167 14.7151L6.62178 14.147C6.8331 14.1115 7.00728 14.0632 7.15673 14.0023C7.34977 13.9231 7.46149 13.924 7.54487 13.5833C7.60841 13.3975 7.62865 13.1929 7.6306 12.9446L7.6442 12.0074C7.65418 11.5296 7.9741 11.1038 8.36654 10.9269L8.60934 10.8357C9.00129 10.7209 9.51093 10.638 10.1196 10.5931C10.6723 10.554 11.2932 10.5341 12.0691 10.534C12.6835 10.5451 13.3164 10.5749 13.9987 10.6299C14.6314 10.6846 15.1335 10.7692 15.505 10.8839L15.7648 10.9977C15.944 11.1046 16.0366 11.1736 16.1228 11.2612C16.3444 11.4864 16.4602 11.7666 16.4577 12.077L16.4688 13.0267C16.4669 13.275 16.49 13.4862 16.5322 13.6542C16.5622 13.7847 16.6111 13.872 16.6727 13.9346C16.722 13.9846 16.8146 14.0412 16.9198 14.0855C17.0621 14.1425 17.2418 14.1874 17.4464 14.22L20.9174 14.8433C21.0662 14.8693 21.2028 14.8579 21.3398 14.8094C21.4829 14.7546 21.6139 14.675 21.7203 14.5703ZM8.94116 12.0487L8.62252 11.5248L8.88466 12.129C8.9221 12.1044 8.94096 12.0735 8.94116 12.0487Z" fill="#626A93"/>
</g>
<defs>
<clipPath id="clip0_283_5374">
<rect width="24" height="24" fill="white" transform="translate(0.131958 0.613281)"/>
</clipPath>
</defs>
</svg>
