<svg width="25" height="25" viewBox="0 0 25 25" fill="none" xmlns="http://www.w3.org/2000/svg">
<path d="M18.7498 8.29088C18.7198 8.29088 18.6998 8.29088 18.6698 8.29088H18.6198C16.7298 8.23088 15.3198 6.77087 15.3198 4.97087C15.3198 3.13087 16.8198 1.64087 18.6498 1.64087C20.4798 1.64087 21.9798 3.14087 21.9798 4.97087C21.9698 6.78087 20.5598 8.24087 18.7598 8.30087C18.7598 8.29087 18.7598 8.29088 18.7498 8.29088ZM18.6498 3.13087C17.6398 3.13087 16.8198 3.95088 16.8198 4.96088C16.8198 5.95088 17.5898 6.75088 18.5798 6.79088C18.5898 6.78088 18.6698 6.78088 18.7598 6.79088C19.7298 6.74088 20.4798 5.94088 20.4898 4.96088C20.4898 3.95088 19.6698 3.13087 18.6498 3.13087Z" fill="#626A93"/>
<path d="M18.7599 15.661C18.3699 15.661 17.9799 15.631 17.5899 15.561C17.1799 15.491 16.9099 15.101 16.9799 14.691C17.0499 14.281 17.4399 14.011 17.8499 14.081C19.0799 14.291 20.3799 14.061 21.2499 13.481C21.7199 13.171 21.9699 12.781 21.9699 12.391C21.9699 12.001 21.7099 11.621 21.2499 11.311C20.3799 10.731 19.0599 10.501 17.8199 10.721C17.4099 10.801 17.0199 10.521 16.9499 10.111C16.8799 9.70101 17.1499 9.31101 17.5599 9.24101C19.1899 8.95101 20.8799 9.261 22.0799 10.061C22.9599 10.651 23.4699 11.491 23.4699 12.391C23.4699 13.281 22.9699 14.131 22.0799 14.731C21.1699 15.331 19.9899 15.661 18.7599 15.661Z" fill="#626A93"/>
<path d="M6.71992 8.29086C6.70992 8.29086 6.69992 8.29086 6.69992 8.29086C4.89992 8.23086 3.48992 6.77086 3.47992 4.97086C3.47992 3.13086 4.97992 1.63086 6.80992 1.63086C8.63992 1.63086 10.1399 3.13086 10.1399 4.96086C10.1399 6.77086 8.72992 8.23086 6.92992 8.29086L6.71992 7.54086L6.78992 8.29086C6.76992 8.29086 6.73992 8.29086 6.71992 8.29086ZM6.81992 6.79086C6.87992 6.79086 6.92992 6.79086 6.98992 6.80086C7.87992 6.76086 8.65992 5.96086 8.65992 4.97086C8.65992 3.96086 7.83992 3.14085 6.82992 3.14085C5.81992 3.14085 4.99992 3.96086 4.99992 4.97086C4.99992 5.95086 5.75992 6.74086 6.72992 6.80086C6.73992 6.79086 6.77992 6.79086 6.81992 6.79086Z" fill="#626A93"/>
<path d="M6.70994 15.661C5.47994 15.661 4.29994 15.331 3.38994 14.731C2.50994 14.141 1.99994 13.291 1.99994 12.391C1.99994 11.501 2.50994 10.651 3.38994 10.061C4.58994 9.261 6.27994 8.95101 7.90994 9.24101C8.31994 9.31101 8.58994 9.70101 8.51994 10.111C8.44994 10.521 8.05994 10.801 7.64994 10.721C6.40994 10.501 5.09994 10.731 4.21994 11.311C3.74994 11.621 3.49994 12.001 3.49994 12.391C3.49994 12.781 3.75994 13.171 4.21994 13.481C5.08994 14.061 6.38994 14.291 7.61994 14.081C8.02994 14.011 8.41994 14.291 8.48994 14.691C8.55994 15.101 8.28994 15.491 7.87994 15.561C7.48994 15.631 7.09994 15.661 6.70994 15.661Z" fill="#626A93"/>
<path d="M12.7498 15.7608C12.7198 15.7608 12.6998 15.7608 12.6698 15.7608H12.6198C10.7298 15.7008 9.31976 14.2408 9.31976 12.4408C9.31976 10.6008 10.8198 9.11084 12.6498 9.11084C14.4798 9.11084 15.9798 10.6108 15.9798 12.4408C15.9698 14.2508 14.5598 15.7108 12.7598 15.7708C12.7598 15.7608 12.7598 15.7608 12.7498 15.7608ZM12.6498 10.6008C11.6398 10.6008 10.8198 11.4208 10.8198 12.4308C10.8198 13.4208 11.5898 14.2208 12.5798 14.2608C12.5898 14.2508 12.6698 14.2508 12.7598 14.2608C13.7298 14.2108 14.4798 13.4108 14.4898 12.4308C14.4898 11.4308 13.6698 10.6008 12.6498 10.6008Z" fill="#626A93"/>
<path d="M12.7497 23.1408C11.5497 23.1408 10.3497 22.8308 9.41972 22.2008C8.53972 21.6108 8.02972 20.7708 8.02972 19.8708C8.02972 18.9808 8.52972 18.1208 9.41972 17.5308C11.2897 16.2908 14.2197 16.2908 16.0797 17.5308C16.9597 18.1208 17.4697 18.9608 17.4697 19.8608C17.4697 20.7508 16.9697 21.6108 16.0797 22.2008C15.1497 22.8208 13.9497 23.1408 12.7497 23.1408ZM10.2497 18.7908C9.77973 19.1008 9.52972 19.4908 9.52972 19.8808C9.52972 20.2708 9.78973 20.6508 10.2497 20.9608C11.5997 21.8708 13.8897 21.8708 15.2397 20.9608C15.7097 20.6508 15.9597 20.2608 15.9597 19.8708C15.9597 19.4808 15.6997 19.1008 15.2397 18.7908C13.8997 17.8808 11.6097 17.8908 10.2497 18.7908Z" fill="#626A93"/>
</svg>
