<svg width="25" height="25" viewBox="0 0 25 25" fill="none" xmlns="http://www.w3.org/2000/svg">
<path fill-rule="evenodd" clip-rule="evenodd" d="M20.2877 5.4519C19.0185 4.1827 16.9607 4.1827 15.6915 5.4519L14.5919 6.55151C14.299 6.84441 13.8242 6.84441 13.5313 6.55151C13.2384 6.25862 13.2384 5.78375 13.5313 5.49085L14.6309 4.39124C16.4859 2.53625 19.4934 2.53625 21.3484 4.39124C23.2034 6.24623 23.2034 9.25377 21.3484 11.1088L17.3484 15.1088C15.4934 16.9637 12.4859 16.9637 10.6309 15.1088C10.338 14.8159 10.338 14.341 10.6309 14.0481C10.9238 13.7552 11.3986 13.7552 11.6915 14.0481C12.9607 15.3173 15.0185 15.3173 16.2877 14.0481L20.2877 10.0481C21.5569 8.77889 21.5569 6.72111 20.2877 5.4519ZM14.2877 11.4519C13.0185 10.1827 10.9607 10.1827 9.69153 11.4519L5.69153 15.4519C4.42232 16.7211 4.42232 18.7789 5.69153 20.0481C6.96073 21.3173 9.01852 21.3173 10.2877 20.0481L11.3893 18.9465C11.6822 18.6536 12.1571 18.6536 12.4499 18.9465C12.7428 19.2394 12.7428 19.7143 12.4499 20.0072L11.3484 21.1088C9.49339 22.9637 6.48586 22.9637 4.63087 21.1088C2.77588 19.2538 2.77588 16.2462 4.63087 14.3912L8.63087 10.3912C10.4859 8.53625 13.4934 8.53625 15.3484 10.3912C15.6413 10.6841 15.6413 11.159 15.3484 11.4519C15.0555 11.7448 14.5806 11.7448 14.2877 11.4519Z" fill="#626A93"/>
</svg>
