<svg width="25" height="24" viewBox="0 0 25 24" fill="none" xmlns="http://www.w3.org/2000/svg">
<g opacity="0.85">
<path fill-rule="evenodd" clip-rule="evenodd" d="M20.9053 3.46967C21.1982 3.76256 21.1982 4.23744 20.9053 4.53033L14.9053 10.5303C14.6124 10.8232 14.1376 10.8232 13.8447 10.5303C13.5518 10.2374 13.5518 9.76256 13.8447 9.46967L19.8447 3.46967C20.1376 3.17678 20.6124 3.17678 20.9053 3.46967Z" fill="#626A93"/>
<path fill-rule="evenodd" clip-rule="evenodd" d="M16.625 3C16.625 2.58579 16.9608 2.25 17.375 2.25H21.275C21.7444 2.25 22.125 2.63056 22.125 3.1V7C22.125 7.41421 21.7892 7.75 21.375 7.75C20.9608 7.75 20.625 7.41421 20.625 7V3.75H17.375C16.9608 3.75 16.625 3.41421 16.625 3Z" fill="#626A93"/>
<path fill-rule="evenodd" clip-rule="evenodd" d="M3.84467 20.5303C3.55178 20.2374 3.55178 19.7626 3.84467 19.4697L9.84467 13.4697C10.1376 13.1768 10.6124 13.1768 10.9053 13.4697C11.1982 13.7626 11.1982 14.2374 10.9053 14.5303L4.90533 20.5303C4.61244 20.8232 4.13756 20.8232 3.84467 20.5303Z" fill="#626A93"/>
<path fill-rule="evenodd" clip-rule="evenodd" d="M8.125 21C8.125 21.4142 7.78921 21.75 7.375 21.75L3.475 21.75C3.00556 21.75 2.625 21.3694 2.625 20.9L2.625 17C2.625 16.5858 2.96079 16.25 3.375 16.25C3.78921 16.25 4.125 16.5858 4.125 17L4.125 20.25L7.375 20.25C7.78921 20.25 8.125 20.5858 8.125 21Z" fill="#626A93"/>
<path fill-rule="evenodd" clip-rule="evenodd" d="M20.9053 20.5303C20.6124 20.8232 20.1376 20.8232 19.8447 20.5303L13.8447 14.5303C13.5518 14.2374 13.5518 13.7626 13.8447 13.4697C14.1376 13.1768 14.6124 13.1768 14.9053 13.4697L20.9053 19.4697C21.1982 19.7626 21.1982 20.2374 20.9053 20.5303Z" fill="#626A93"/>
<path fill-rule="evenodd" clip-rule="evenodd" d="M21.375 16.25C21.7892 16.25 22.125 16.5858 22.125 17L22.125 20.9C22.125 21.3694 21.7444 21.75 21.275 21.75L17.375 21.75C16.9608 21.75 16.625 21.4142 16.625 21C16.625 20.5858 16.9608 20.25 17.375 20.25L20.625 20.25L20.625 17C20.625 16.5858 20.9608 16.25 21.375 16.25Z" fill="#626A93"/>
<path fill-rule="evenodd" clip-rule="evenodd" d="M3.84467 3.46967C4.13756 3.17678 4.61244 3.17678 4.90533 3.46967L10.9053 9.46967C11.1982 9.76256 11.1982 10.2374 10.9053 10.5303C10.6124 10.8232 10.1376 10.8232 9.84467 10.5303L3.84467 4.53033C3.55178 4.23744 3.55178 3.76256 3.84467 3.46967Z" fill="#626A93"/>
<path fill-rule="evenodd" clip-rule="evenodd" d="M3.375 7.75C2.96079 7.75 2.625 7.41421 2.625 7L2.625 3.1C2.625 2.63056 3.00556 2.25 3.475 2.25L7.375 2.25C7.78921 2.25 8.125 2.58579 8.125 3C8.125 3.41421 7.78921 3.75 7.375 3.75L4.125 3.75L4.125 7C4.125 7.41421 3.78921 7.75 3.375 7.75Z" fill="#626A93"/>
</g>
</svg>
