<svg width="25" height="24" viewBox="0 0 25 24" fill="none" xmlns="http://www.w3.org/2000/svg">
<path fill-rule="evenodd" clip-rule="evenodd" d="M3.79563 3.68301C4.80069 2.60423 6.23244 1.99976 7.92438 1.99976H16.5764C18.2731 1.99976 19.7061 2.60378 20.7106 3.68337C21.7095 4.75695 22.2286 6.23965 22.2264 7.90475V16.0498C22.2264 17.7145 21.7065 19.1969 20.7072 20.2703C19.7022 21.3498 18.269 21.9538 16.5714 21.9538H7.92438C6.22887 21.9538 4.79676 21.3496 3.79233 20.2702C2.79355 19.1969 2.27338 17.7146 2.27338 16.0498V7.90376C2.27338 6.2381 2.79604 4.7559 3.79563 3.68301ZM4.89312 4.70551C4.19521 5.45461 3.77338 6.54941 3.77338 7.90376V16.0498C3.77338 17.4049 4.19371 18.4996 4.89042 19.2483C5.58149 19.991 6.59988 20.4538 7.92438 20.4538H16.5714C17.8987 20.4538 18.918 19.9907 19.6093 19.2482C20.3062 18.4996 20.7264 17.405 20.7264 16.0498V7.90376C20.7282 6.54886 20.3088 5.45356 19.6124 4.70514C18.9216 3.96273 17.9026 3.49976 16.5764 3.49976H7.92438C6.60432 3.49976 5.58556 3.96228 4.89312 4.70551Z" fill="#626A93"/>
<path fill-rule="evenodd" clip-rule="evenodd" d="M9.13042 7.68896C8.52554 7.68916 8.03479 8.17957 8.03479 8.78496C8.03479 9.39049 8.52574 9.88096 9.13079 9.88096C9.73648 9.88096 10.2266 9.39091 10.2268 8.78526C10.226 8.18022 9.73547 7.68976 9.13042 7.68896ZM6.53479 8.78496C6.53479 7.35049 7.69784 6.18896 9.13079 6.18896H9.13153C10.5642 6.19037 11.7254 7.35159 11.7268 8.78423L11.7268 8.78496C11.7268 10.2192 10.565 11.381 9.13079 11.381C7.69784 11.381 6.53479 10.2194 6.53479 8.78496Z" fill="#626A93"/>
<path fill-rule="evenodd" clip-rule="evenodd" d="M15.5463 14.3993C15.2455 14.798 14.896 15.261 14.5134 15.6976C13.8997 16.3977 13.2859 16.8262 12.632 16.9898C11.9683 17.1559 11.3801 17.0198 10.8897 16.8269C10.6483 16.7319 10.4169 16.6177 10.2088 16.5123C10.1675 16.4914 10.1274 16.4709 10.088 16.4509C9.92 16.3654 9.76674 16.2874 9.60842 16.2152C9.22425 16.04 8.89862 15.9425 8.56656 15.9528C8.35708 15.9594 8.07615 16.0538 7.72679 16.2822C7.38358 16.5066 7.02447 16.8275 6.67125 17.2062C5.96418 17.9642 5.35037 18.8779 5.00746 19.4804L3.7038 18.7385C4.09005 18.0598 4.77 17.0453 5.57439 16.183C5.97689 15.7515 6.42794 15.3392 6.90596 15.0267C7.37782 14.7182 7.92918 14.472 8.5197 14.4536C9.18764 14.4327 9.76045 14.6359 10.2308 14.8504C10.4214 14.9373 10.6098 15.0333 10.7794 15.1196C10.816 15.1383 10.8517 15.1565 10.8864 15.174C11.0907 15.2775 11.2681 15.3639 11.4388 15.431C11.7726 15.5623 12.0223 15.5962 12.2678 15.5347C12.523 15.4708 12.8897 15.2743 13.3854 14.7088C13.7357 14.3092 14.0172 13.9352 14.2963 13.5645C14.4504 13.3598 14.6038 13.156 14.7675 12.9496C15.1877 12.4197 15.6824 11.8667 16.3433 11.5812C17.0595 11.2717 17.8372 11.3257 18.7044 11.7093C19.5448 12.081 20.5249 12.7842 21.7307 13.8631L20.7305 14.981C19.5614 13.9349 18.7211 13.3568 18.0977 13.0811C17.501 12.8172 17.1713 12.8575 16.9383 12.9581C16.65 13.0827 16.3536 13.3637 15.9428 13.8817C15.8228 14.0329 15.6901 14.2087 15.5463 14.3993Z" fill="#626A93"/>
</svg>
