<svg width="25" height="24" viewBox="0 0 25 24" fill="none" xmlns="http://www.w3.org/2000/svg">
<path d="M6.07694 21.7499C4.95694 21.7499 4.24694 21.3699 3.79694 20.9199C2.91694 20.0399 2.29694 18.1699 4.27694 14.1999L5.14694 12.4699C5.25694 12.2399 5.25694 11.7599 5.14694 11.5299L4.27694 9.7999C2.28694 5.8299 2.91694 3.9499 3.79694 3.0799C4.66694 2.1999 6.54694 1.5699 10.5069 3.5599L19.0669 7.8399C21.1969 8.8999 22.3669 10.3799 22.3669 11.9999C22.3669 13.6199 21.1969 15.0999 19.0769 16.1599L10.5169 20.4399C8.57694 21.4099 7.13694 21.7499 6.07694 21.7499ZM6.07694 3.7499C5.53694 3.7499 5.11694 3.8799 4.85694 4.1399C4.12694 4.8599 4.41694 6.7299 5.61694 9.1199L6.48694 10.8599C6.80694 11.5099 6.80694 12.4899 6.48694 13.1399L5.61694 14.8699C4.41694 17.2699 4.12694 19.1299 4.85694 19.8499C5.57694 20.5799 7.44694 20.2899 9.84694 19.0899L18.4069 14.8099C19.9769 14.0299 20.8669 12.9999 20.8669 11.9899C20.8669 10.9799 19.9669 9.9499 18.3969 9.1699L9.83694 4.8999C8.31694 4.1399 7.00694 3.7499 6.07694 3.7499Z" fill="#626A93"/>
<path d="M11.5069 12.75H6.10693C5.69693 12.75 5.35693 12.41 5.35693 12C5.35693 11.59 5.69693 11.25 6.10693 11.25H11.5069C11.9169 11.25 12.2569 11.59 12.2569 12C12.2569 12.41 11.9169 12.75 11.5069 12.75Z" fill="#626A93"/>
</svg>
