<svg width="24" height="25" viewBox="0 0 24 25" fill="none" xmlns="http://www.w3.org/2000/svg">
<path d="M15.26 22.6309H8.73998C3.82998 22.6309 1.72998 20.5309 1.72998 15.6209V15.4909C1.72998 11.0509 3.47998 8.91088 7.39998 8.54088C7.79998 8.51088 8.17998 8.81089 8.21998 9.22089C8.25998 9.63089 7.95998 10.0009 7.53998 10.0409C4.39998 10.3309 3.22998 11.8109 3.22998 15.5009V15.6309C3.22998 19.7009 4.66998 21.1409 8.73998 21.1409H15.26C19.33 21.1409 20.77 19.7009 20.77 15.6309V15.5009C20.77 11.7909 19.58 10.3109 16.38 10.0409C15.97 10.0009 15.66 9.64089 15.7 9.23089C15.74 8.82089 16.09 8.51089 16.51 8.55089C20.49 8.89089 22.27 11.0409 22.27 15.5109V15.6409C22.27 20.5309 20.17 22.6309 15.26 22.6309Z" fill="#626A93"/>
<path d="M12 16.131C11.59 16.131 11.25 15.791 11.25 15.381V4.00098C11.25 3.59098 11.59 3.25098 12 3.25098C12.41 3.25098 12.75 3.59098 12.75 4.00098V15.381C12.75 15.791 12.41 16.131 12 16.131Z" fill="#626A93"/>
<path d="M15.35 6.9808C15.16 6.9808 14.97 6.9108 14.82 6.7608L12 3.9408L9.18003 6.7608C8.89003 7.0508 8.41003 7.0508 8.12003 6.7608C7.83003 6.4708 7.83003 5.9908 8.12003 5.7008L11.47 2.3508C11.76 2.0608 12.24 2.0608 12.53 2.3508L15.88 5.7008C16.17 5.9908 16.17 6.4708 15.88 6.7608C15.74 6.9108 15.54 6.9808 15.35 6.9808Z" fill="#626A93"/>
</svg>
