<svg width="24" height="24" viewBox="0 0 24 24" fill="none" xmlns="http://www.w3.org/2000/svg">
<path fill-rule="evenodd" clip-rule="evenodd" d="M5 6.75C3.75736 6.75 2.75 7.75736 2.75 9V15C2.75 16.2426 3.75736 17.25 5 17.25H14.4386C15.6812 17.25 16.6886 16.2426 16.6886 15V13.9988C16.6886 13.3827 17.3831 13.0227 17.8866 13.3777L21.2499 15.7495V8.25047L17.8866 10.6223C17.3831 10.9773 16.6886 10.6172 16.6886 10.0012V9C16.6886 7.75736 15.6812 6.75 14.4386 6.75H5ZM1.25 9C1.25 6.92893 2.92893 5.25 5 5.25H14.4386C16.3709 5.25 17.9619 6.71156 18.1664 8.5895L20.7795 6.74672C21.6076 6.16277 22.7499 6.755 22.7499 7.76826V16.2317C22.7499 17.245 21.6076 17.8372 20.7795 17.2533L18.1664 15.4105C17.9619 17.2884 16.3709 18.75 14.4386 18.75H5C2.92893 18.75 1.25 17.0711 1.25 15V9Z" fill="#626A93"/>
</svg>
