<svg width="25" height="24" viewBox="0 0 25 24" fill="none" xmlns="http://www.w3.org/2000/svg">
<path fill-rule="evenodd" clip-rule="evenodd" d="M12.6398 18.0891C13.054 18.0891 13.3898 18.4249 13.3898 18.8391V22.0001C13.3898 22.4143 13.054 22.7501 12.6398 22.7501C12.2256 22.7501 11.8898 22.4143 11.8898 22.0001V18.8391C11.8898 18.4249 12.2256 18.0891 12.6398 18.0891Z" fill="#626A93"/>
<path fill-rule="evenodd" clip-rule="evenodd" d="M12.6397 2.75C10.814 2.75 9.32764 4.23825 9.32764 6.08095V10.7682C9.32764 12.6106 10.8137 14.0981 12.6397 14.0981C14.4666 14.0981 15.9518 12.6108 15.9518 10.7682V6.08095C15.9518 4.23813 14.4664 2.75 12.6397 2.75ZM7.82764 6.08095C7.82764 3.41639 9.97902 1.25 12.6397 1.25C15.3016 1.25 17.4518 3.41651 17.4518 6.08095V10.7682C17.4518 13.4329 15.3013 15.5981 12.6397 15.5981C9.97927 15.5981 7.82764 13.433 7.82764 10.7682V6.08095Z" fill="#626A93"/>
<path fill-rule="evenodd" clip-rule="evenodd" d="M4.63995 10.0505C5.05417 10.0505 5.38995 10.3863 5.38995 10.8005C5.38995 14.8286 8.63873 18.0882 12.6394 18.0882C16.6412 18.0882 19.89 14.8285 19.89 10.8005C19.89 10.3863 20.2257 10.0505 20.64 10.0505C21.0542 10.0505 21.39 10.3863 21.39 10.8005C21.39 15.6502 17.4763 19.5882 12.6394 19.5882C7.80351 19.5882 3.88995 15.6502 3.88995 10.8005C3.88995 10.3863 4.22574 10.0505 4.63995 10.0505Z" fill="#626A93"/>
</svg>
